<svg xmlns="http://www.w3.org/2000/svg" viewBox="0 0 900 600">
  <rect width="900" height="200" fill="#FF9933"/>
  <rect width="900" height="200" y="200" fill="#fff"/>
  <rect width="900" height="200" y="400" fill="#138808"/>
  <circle cx="450" cy="300" r="60" fill="#000080"/>
  <circle cx="450" cy="300" r="55" fill="#fff"/>
  <circle cx="450" cy="300" r="16.5" fill="#000080"/>
  <g id="spokes">
    <circle cx="450" cy="300" r="52.5" fill="none" stroke="#000080" stroke-width="1"/>
    <g id="spoke">
      <line x1="450" y1="300" x2="450" y2="248" stroke="#000080" stroke-width="1"/>
    </g>
    <use href="#spoke" transform="rotate(15,450,300)"/>
    <use href="#spoke" transform="rotate(30,450,300)"/>
    <use href="#spoke" transform="rotate(45,450,300)"/>
    <use href="#spoke" transform="rotate(60,450,300)"/>
    <use href="#spoke" transform="rotate(75,450,300)"/>
    <use href="#spoke" transform="rotate(90,450,300)"/>
    <use href="#spoke" transform="rotate(105,450,300)"/>
    <use href="#spoke" transform="rotate(120,450,300)"/>
    <use href="#spoke" transform="rotate(135,450,300)"/>
    <use href="#spoke" transform="rotate(150,450,300)"/>
    <use href="#spoke" transform="rotate(165,450,300)"/>
    <use href="#spoke" transform="rotate(180,450,300)"/>
    <use href="#spoke" transform="rotate(195,450,300)"/>
    <use href="#spoke" transform="rotate(210,450,300)"/>
    <use href="#spoke" transform="rotate(225,450,300)"/>
    <use href="#spoke" transform="rotate(240,450,300)"/>
    <use href="#spoke" transform="rotate(255,450,300)"/>
    <use href="#spoke" transform="rotate(270,450,300)"/>
    <use href="#spoke" transform="rotate(285,450,300)"/>
    <use href="#spoke" transform="rotate(300,450,300)"/>
    <use href="#spoke" transform="rotate(315,450,300)"/>
    <use href="#spoke" transform="rotate(330,450,300)"/>
    <use href="#spoke" transform="rotate(345,450,300)"/>
  </g>
</svg> 